<?xml version="1.0" encoding="iso-8859-1"?>
<!-- Generator: Adobe Illustrator 19.0.0, SVG Export Plug-In . SVG Version: 6.00 Build 0)  -->
<svg version="1.1" id="Capa_1" xmlns="http://www.w3.org/2000/svg" xmlns:xlink="http://www.w3.org/1999/xlink" x="0px" y="0px"
	 viewBox="0 0 512.001 512.001" style="enable-background:new 0 0 512.001 512.001;" xml:space="preserve">
<path style="fill:#E5F9F6;" d="M399.254,504.494h-85.073c-5.719,0-10.491-4.369-10.993-10.066l-11.316-128.374
	c-0.362-4.11,2.876-7.646,7.002-7.646h115.688c4.126,0,7.364,3.536,7.002,7.646l-11.316,128.374
	C409.745,500.125,404.974,504.494,399.254,504.494z"/>
<path style="fill:#D6E5E2;" d="M414.562,358.408h-47.454L354.23,504.495h45.025c5.719,0,10.491-4.369,10.993-10.067l11.316-128.374
	C421.926,361.944,418.687,358.408,414.562,358.408z"/>
<path style="fill:#E5F9F6;" d="M198.388,75.168V38.891h-57.255v36.277c0,28.775-12.705,56.082-34.716,74.617l-9.459,7.965
	c-4.151,3.495-6.547,8.645-6.547,14.072v313.9c0,10.368,8.405,18.773,18.773,18.773h121.152c10.368,0,18.773-8.405,18.773-18.773
	v-313.9c0-5.427-2.396-10.576-6.547-14.072l-9.459-7.965C211.093,131.25,198.388,103.943,198.388,75.168z"/>
<g>
	<path style="fill:#FD9727;" d="M295.05,402.106l8.138,92.321c0.502,5.697,5.274,10.067,10.993,10.067h85.073
		c5.719,0,10.491-4.369,10.993-10.067l8.138-92.321L295.05,402.106L295.05,402.106z"/>
	<path style="fill:#FD9727;" d="M106.417,149.785l-9.459,7.965c-4.151,3.495-6.547,8.645-6.547,14.072v313.9
		c0,10.368,8.405,18.773,18.773,18.773h121.152c10.368,0,18.773-8.405,18.773-18.773v-313.9c0-5.427-2.396-10.577-6.547-14.072
		l-9.459-7.965c-13.874-11.682-24.046-26.852-29.674-43.676h-67.338C130.463,122.932,120.291,138.102,106.417,149.785z"/>
</g>
<path style="fill:#E57F23;" d="M249.11,485.721v-313.9c0-2.035-0.337-4.031-0.977-5.916c-0.213-0.628-0.46-1.244-0.74-1.845
	c-0.559-1.201-1.248-2.342-2.056-3.402c-0.808-1.059-1.736-2.036-2.774-2.91l-9.459-7.965c-0.792-0.667-1.567-1.348-2.335-2.036
	c-0.236-0.212-0.468-0.428-0.702-0.643c-0.538-0.493-1.071-0.99-1.597-1.494c-0.25-0.24-0.5-0.48-0.747-0.723
	c-0.539-0.527-1.07-1.061-1.595-1.599c-0.196-0.201-0.395-0.399-0.589-0.602c-0.717-0.748-1.424-1.504-2.115-2.272
	c-0.041-0.046-0.081-0.093-0.122-0.139c-0.646-0.721-1.28-1.452-1.903-2.191c-0.181-0.214-0.358-0.431-0.537-0.647
	c-0.493-0.594-0.979-1.194-1.457-1.799c-0.179-0.227-0.358-0.454-0.535-0.682c-0.522-0.673-1.035-1.353-1.539-2.039
	c-0.103-0.14-0.209-0.279-0.311-0.419c-0.627-0.863-1.24-1.735-1.838-2.616c-0.012-0.018-0.023-0.036-0.035-0.053
	c-0.567-0.838-1.118-1.686-1.658-2.54c-0.114-0.18-0.225-0.361-0.337-0.541c-0.452-0.726-0.895-1.458-1.328-2.195
	c-0.105-0.179-0.211-0.358-0.315-0.537c-0.505-0.873-0.999-1.752-1.476-2.639c-0.008-0.016-0.017-0.031-0.026-0.047
	c-1.016-1.891-1.965-3.816-2.854-5.769c-0.065-0.143-0.128-0.286-0.193-0.429c-0.382-0.849-0.751-1.704-1.108-2.564
	c-0.052-0.125-0.105-0.25-0.157-0.376c-0.821-2.001-1.578-4.03-2.265-6.084h-44.417c1.03,8.472,3.118,16.795,6.346,24.723
	c2.986,7.335,7.001,14.572,12.204,18.953l2.667,2.246c8.457,7.121,13.339,17.614,13.339,28.67v323.794h36.767
	c1.944,0,3.819-0.296,5.583-0.844C243.561,501.274,249.11,494.145,249.11,485.721z"/>
<path style="fill:#4A4256;" d="M199.674,59.781h-59.827c-2.988,0-5.411-2.422-5.411-5.411V12.916c0-2.988,2.422-5.411,5.411-5.411
	h59.827c2.988,0,5.411,2.422,5.411,5.411V54.37C205.085,57.358,202.662,59.781,199.674,59.781z"/>
<path style="fill:#352F3F;" d="M199.674,7.505h-50.007V59.78h50.007c2.988,0,5.411-2.422,5.411-5.411V12.916
	C205.085,9.928,202.662,7.505,199.674,7.505z"/>
<polygon style="fill:#4A4256;" points="90.411,323.643 249.11,397.1 249.11,286.96 90.411,213.503 "/>
<polygon style="fill:#352F3F;" points="249.11,397.1 249.11,286.96 193.569,261.252 193.569,371.392 "/>
<polygon style="fill:#FDC74F;" points="249.11,315.318 249.11,286.96 90.411,213.503 90.411,241.079 "/>
<polygon style="fill:#E5A535;" points="249.11,315.318 249.11,286.96 193.569,261.252 193.569,289.336 "/>
<polygon style="fill:#FDC74F;" points="90.411,297.286 90.411,323.643 249.11,397.1 249.11,371.525 "/>
<polygon style="fill:#E5A535;" points="249.11,397.1 249.11,371.525 193.569,345.543 193.569,371.392 "/>
<path style="fill:#E9EAEB;" d="M214.794,472.895h-90.066c-4.145,0-7.505-3.36-7.505-7.505s3.36-7.505,7.505-7.505h90.066
	c4.145,0,7.505,3.36,7.505,7.505S218.939,472.895,214.794,472.895z"/>
<path style="fill:#E57F23;" d="M363.256,402.106l-9.026,102.388h45.025c5.719,0,10.491-4.369,10.993-10.067l8.138-92.321
	L363.256,402.106L363.256,402.106z"/>
<path style="fill:#D6E5E2;" d="M198.388,59.781h-40.163l0.027,33.827c0.003,4.184,0.258,8.36,0.761,12.5h44.417
	c-3.301-9.867-5.042-20.303-5.042-30.941V59.781z"/>
<path style="fill:#D7E0DC;" d="M404.317,478.836h-95.198c-2.824,0-5.44-0.954-7.531-2.566l1.601,18.158
	c0.502,5.697,5.274,10.067,10.993,10.067h85.073c5.719,0,10.491-4.369,10.993-10.067l1.601-18.158
	C409.756,477.882,407.141,478.836,404.317,478.836z"/>
<path style="fill:#CBD1CF;" d="M404.317,478.836h-47.825l-2.262,25.659h45.025c3.217,0,6.134-1.382,8.16-3.606
	c1.576-1.73,2.613-3.968,2.832-6.46l1.601-18.158C409.756,477.882,407.141,478.836,404.317,478.836z"/>
<path d="M124.728,446.351h90.066c4.145,0,7.505-3.36,7.505-7.505s-3.36-7.505-7.505-7.505h-90.066c-4.145,0-7.505,3.36-7.505,7.505
	S120.583,446.351,124.728,446.351z"/>
<path d="M124.728,472.895h90.066c4.145,0,7.505-3.36,7.505-7.505s-3.36-7.505-7.505-7.505h-90.066c-4.145,0-7.505,3.36-7.505,7.505
	S120.583,472.895,124.728,472.895z"/>
<path d="M247.397,152.008L247.397,152.008l-9.458-7.964c-12.721-10.712-22.053-24.528-27.267-39.88
	c-0.07-0.261-0.153-0.517-0.249-0.766c-2.967-9-4.529-18.512-4.529-28.23v-9.484c3.988-2.201,6.697-6.446,6.697-11.314V12.916
	C212.59,5.794,206.796,0,199.674,0h-59.827c-7.122,0-12.916,5.794-12.916,12.916V54.37c0,4.868,2.709,9.113,6.697,11.314v9.484
	c0,9.717-1.563,19.23-4.529,28.23c-0.097,0.249-0.179,0.505-0.249,0.766c-5.213,15.351-14.545,29.168-27.267,39.88l-9.458,7.964
	c-5.859,4.933-9.219,12.155-9.219,19.813v313.9c0,14.49,11.788,26.279,26.278,26.279h121.153c14.49,0,26.278-11.789,26.278-26.279
	v-313.9C256.615,164.163,253.256,156.941,247.397,152.008z M141.942,15.011h55.637v37.264h-55.637L141.942,15.011L141.942,15.011z
	 M193.522,98.603h-47.523c1.736-7.611,2.64-15.464,2.64-23.436v-7.881h42.244v7.881C190.883,83.139,191.786,90.992,193.522,98.603z
	 M241.605,485.721c0,6.213-5.054,11.268-11.267,11.268H109.184c-6.213,0-11.267-5.055-11.267-11.268V335.387l143.688,66.508V485.721
	z M241.605,385.355L97.917,318.847v-9.763L241.605,376.3V385.355z M241.605,359.728L97.917,292.511v-39.635l143.688,67.217V359.728z
	 M241.605,275.215l-86.763-40.16c-3.762-1.742-8.223-0.103-9.964,3.658c-1.742,3.762-0.103,8.223,3.658,9.964l93.068,43.078v11.765
	L97.917,236.304v-11.056l18.413,8.523c3.762,1.742,8.223,0.103,9.964-3.658c1.742-3.762,0.103-8.223-3.658-9.964l-24.719-11.441
	v-36.886c0-3.22,1.413-6.257,3.876-8.331l9.459-7.965c13.554-11.414,23.804-25.851,30.115-41.911h56.788
	c6.31,16.061,16.56,30.498,30.115,41.911l9.459,7.965l0,0c2.463,2.074,3.876,5.11,3.876,8.33V275.215z"/>
<path d="M425.281,355.621c-2.746-2.998-6.653-4.718-10.719-4.718H298.874c-4.066,0-7.973,1.72-10.719,4.718
	c-2.746,2.999-4.116,7.041-3.76,11.093l11.316,128.374c0.585,6.629,4.52,12.137,10.068,14.932c2.522,1.271,5.377,1.981,8.401,1.981
	h85.073c3.025,0,5.88-0.71,8.401-1.981c5.548-2.795,9.484-8.303,10.068-14.932l11.316-128.374
	C429.397,362.663,428.027,358.62,425.281,355.621z M402.771,493.768c-0.142,1.606-1.317,2.867-2.843,3.158
	c-0.218,0.041-0.443,0.063-0.674,0.063h-85.073c-0.23,0-0.456-0.022-0.674-0.063c-1.526-0.29-2.701-1.551-2.843-3.158l-0.655-7.427
	h93.415L402.771,493.768z M411.513,394.601h-54.795c-4.145,0-7.505,3.36-7.505,7.505s3.36,7.505,7.505,7.505h53.472l-5.437,61.676
	c-0.146,0.013-0.28,0.043-0.436,0.043h-95.198c-0.156,0-0.29-0.029-0.436-0.043l-5.437-61.676h17.999
	c4.145,0,7.505-3.36,7.505-7.505s-3.36-7.505-7.505-7.505h-19.323l-2.529-28.687H414.04L411.513,394.601z"/>
<g>
</g>
<g>
</g>
<g>
</g>
<g>
</g>
<g>
</g>
<g>
</g>
<g>
</g>
<g>
</g>
<g>
</g>
<g>
</g>
<g>
</g>
<g>
</g>
<g>
</g>
<g>
</g>
<g>
</g>
</svg>
