<?xml version="1.0" encoding="iso-8859-1"?>
<!-- Generator: Adobe Illustrator 19.0.0, SVG Export Plug-In . SVG Version: 6.00 Build 0)  -->
<svg version="1.1" id="Capa_1" xmlns="http://www.w3.org/2000/svg" xmlns:xlink="http://www.w3.org/1999/xlink" x="0px" y="0px"
	 viewBox="0 0 512 512" style="enable-background:new 0 0 512 512;" xml:space="preserve">
<rect x="123.471" y="90.33" style="fill:#D0E2ED;" width="265.06" height="84.33"/>
<path style="fill:#9A5F5B;" d="M189.734,131.752h35.204h120.108l43.487-41.418V63.201c0-3.314-2.686-6-6-6H222.868l-33.132,0.001
	h-60.268c-3.314,0-6,2.686-6,6V90.33l43.489,41.423h22.778"/>
<rect x="189.73" y="7.5" style="fill:#D0E2ED;" width="33.13" height="154.1"/>
<rect x="189.73" y="7.5" style="fill:#9A5F5B;" width="33.13" height="74.55"/>
<path style="fill:#FDBE40;" d="M405.103,232.003V96.33c0-3.314-2.687-6-6.001-6l-39.015,0.004c-2.753,0-5.152,1.874-5.82,4.545
	l-14.295,57.179c-0.668,2.671-3.068,4.545-5.821,4.545H177.853c-2.753,0-5.153-1.874-5.821-4.545l-14.295-57.183
	c-0.668-2.671-3.068-4.545-5.821-4.545H112.9c-3.314,0-6,2.686-6,6v135.673H405.103z"/>
<g>
	<path style="fill:#FFA912;" d="M137.736,94.875l14.295,57.183c0.668,2.671,3.068,4.545,5.821,4.545h20
		c-2.753,0-5.153-1.874-5.821-4.545l-14.295-57.183c-0.668-2.671-3.068-4.545-5.821-4.545h-20
		C134.669,90.33,137.068,92.204,137.736,94.875z"/>
	<path style="fill:#FFA912;" d="M399.102,90.33l-19.961,0.002c3.296,0.021,5.962,2.697,5.962,5.998v135.673h20V96.33
		C405.103,93.017,402.416,90.33,399.102,90.33z"/>
</g>
<path style="fill:#D0E2ED;" d="M405.103,487.932v-281.63H106.9v281.63c0,9.15,7.418,16.568,16.568,16.568h265.068
	C397.685,504.5,405.103,497.082,405.103,487.932z"/>
<path style="fill:#DC1C4A;" d="M405.103,355.404L259.685,242.301c-2.167-1.685-5.201-1.685-7.367,0L106.899,355.404l0.001-149.101
	h298.203V355.404z"/>
<circle style="fill:#87D0ED;" cx="256.001" cy="338.84" r="33.13"/>
<path style="fill:#AABFCF;" d="M385.103,206.302v281.63c0,9.15-7.418,16.568-16.568,16.568h20c9.15,0,16.568-7.418,16.568-16.568
	v-281.63H385.103z"/>
<polygon style="fill:#B31E48;" points="405.103,355.404 405.103,206.302 385.103,206.302 385.103,339.848 "/>
<path d="M410.406,85.026c-1.406-1.406-3.315-2.196-5.304-2.196l-9.066,0.001v-25.63c0-4.142-3.357-7.5-7.5-7.5H230.367V7.5
	c0-4.142-3.357-7.5-7.5-7.5h-33.134c-4.143,0-7.5,3.358-7.5,7.5v42.202h-58.766c-4.143,0-7.5,3.358-7.5,7.5V82.83H106.9
	c-4.143,0-7.5,3.358-7.5,7.5v115.953c0,0.007-0.001,0.013-0.001,0.019s0.001,0.013,0.001,0.019v281.611
	c0,13.271,10.797,24.068,24.067,24.068h265.068c13.271,0,24.067-10.797,24.067-24.068V90.33
	C412.603,88.34,411.813,86.433,410.406,85.026z M381.036,82.832l-18.131,0.002V64.701h18.131V82.832z M182.232,149.102h-3.209
	l-2.462-9.85h5.671V149.102z M197.232,131.811c0-0.02,0.003-0.038,0.003-0.058s-0.003-0.038-0.003-0.058V89.551h18.134v59.551
	h-18.134V131.811z M230.367,139.253h18.134v9.85h-18.134V139.253z M263.5,139.253h18.135v9.85H263.5V139.253z M347.905,89.402
	l-8.712,34.85h-9.422V64.701h18.135v24.701H347.905z M314.77,124.253h-18.135V64.701h18.135V124.253z M281.635,124.253H263.5V64.701
	h18.135V124.253z M296.635,139.253h18.135v9.85h-18.135V139.253z M329.77,139.253h5.672l-2.462,9.85h-3.21V139.253z M248.499,64.701
	v59.552h-18.134V82.07c0-0.007,0.001-0.013,0.001-0.019c0-0.007-0.001-0.013-0.001-0.019V64.701H248.499z M215.367,15v59.551
	h-18.134V57.26c0-0.02,0.003-0.039,0.003-0.058s-0.003-0.038-0.003-0.058V15H215.367z M182.232,124.253h-9.421l-8.71-34.843V64.702
	h18.131L182.232,124.253L182.232,124.253z M130.967,64.702h18.135V82.83h-18.135V64.702z M150.745,97.83l15.146,60.591
	c0.835,3.339,3.835,5.681,7.276,5.681h165.667c3.441,0,6.441-2.342,7.276-5.681l15.146-60.587l27.217-0.003
	c0.02,0,0.04,0.003,0.061,0.003s0.04-0.003,0.061-0.003l9.007-0.001v100.972H194.035c-4.143,0-7.5,3.358-7.5,7.5s3.357,7.5,7.5,7.5
	h203.568v126.266L260.606,233.516c-2.709-2.107-6.5-2.107-9.209,0L114.4,340.068V213.802h49.702c4.143,0,7.5-3.358,7.5-7.5
	s-3.357-7.5-7.5-7.5H114.4V97.83H150.745z M388.536,497H123.467c-5,0-9.067-4.068-9.067-9.068V359.07l141.601-110.132
	l141.602,110.134v128.861C397.603,492.932,393.536,497,388.536,497z"/>
<path d="M256.001,379.47c22.405,0,40.634-18.228,40.634-40.634s-18.228-40.634-40.634-40.634s-40.634,18.228-40.634,40.634
	C215.368,361.242,233.596,379.47,256.001,379.47z M256.001,313.202c14.135,0,25.634,11.499,25.634,25.634
	s-11.499,25.634-25.634,25.634s-25.634-11.499-25.634-25.634S241.867,313.202,256.001,313.202z"/>
<path d="M188.008,445.736h135.986c4.142,0,7.5-3.358,7.5-7.5v-33.132c0-4.142-3.358-7.5-7.5-7.5H188.008c-4.143,0-7.5,3.358-7.5,7.5
	v33.132C180.508,442.378,183.866,445.736,188.008,445.736z M195.508,412.604h120.986v18.132H195.508V412.604z"/>
<path d="M338.835,463.873H173.167c-4.143,0-7.5,3.358-7.5,7.5s3.357,7.5,7.5,7.5h165.668c4.143,0,7.5-3.358,7.5-7.5
	C346.335,467.23,342.978,463.873,338.835,463.873z"/>
<g>
</g>
<g>
</g>
<g>
</g>
<g>
</g>
<g>
</g>
<g>
</g>
<g>
</g>
<g>
</g>
<g>
</g>
<g>
</g>
<g>
</g>
<g>
</g>
<g>
</g>
<g>
</g>
<g>
</g>
</svg>
