<?xml version="1.0" encoding="iso-8859-1"?>
<!-- Generator: Adobe Illustrator 19.0.0, SVG Export Plug-In . SVG Version: 6.00 Build 0)  -->
<svg version="1.1" id="Capa_1" xmlns="http://www.w3.org/2000/svg" xmlns:xlink="http://www.w3.org/1999/xlink" x="0px" y="0px"
	 viewBox="0 0 511.608 511.608" style="enable-background:new 0 0 511.608 511.608;" xml:space="preserve">
<polygon style="fill:#E6E9ED;" points="399.694,379.708 383.706,507.611 303.768,507.611 287.78,379.708 "/>
<polygon style="fill:#FFFFFF;" points="287.78,379.708 303.768,507.611 319.755,507.611 303.768,379.708 "/>
<g style="opacity:0.2;">
	<polygon points="399.694,379.708 383.706,507.611 367.718,507.611 383.706,379.708 	"/>
</g>
<polygon style="fill:#CCD1D9;" points="289.778,395.697 397.696,395.697 399.694,379.708 287.78,379.708 "/>
<g style="opacity:0.7;">
	<polygon style="fill:#FFFFFF;" points="287.78,379.708 289.778,395.697 305.766,395.697 303.768,379.708 	"/>
</g>
<g style="opacity:0.7;">
	<polygon style="fill:#FFFFFF;" points="399.694,379.708 397.696,395.697 381.707,395.697 383.706,379.708 	"/>
</g>
<g>
	<rect x="127.904" y="411.684" style="fill:#ED5565;" width="111.91" height="31.975"/>
	<rect x="127.904" y="259.804" style="fill:#ED5565;" width="111.91" height="31.976"/>
</g>
<rect x="127.904" y="291.774" style="fill:#E6E9ED;" width="111.91" height="119.91"/>
<g>
	<path style="fill:#FFCE54;" d="M159.878,379.708c0,4.419-3.576,7.994-7.99,7.994c-4.419,0-7.998-3.575-7.998-7.994
		c0-4.418,3.579-7.993,7.998-7.993C156.302,371.715,159.878,375.29,159.878,379.708z"/>
	<path style="fill:#FFCE54;" d="M191.853,379.708c0,4.419-3.575,7.994-7.989,7.994c-4.419,0-7.998-3.575-7.998-7.994
		c0-4.418,3.579-7.993,7.998-7.993C188.278,371.715,191.853,375.29,191.853,379.708z"/>
	<path style="fill:#FFCE54;" d="M223.828,379.708c0,4.419-3.575,7.994-7.989,7.994c-4.419,0-7.998-3.575-7.998-7.994
		c0-4.418,3.579-7.993,7.998-7.993C220.253,371.715,223.828,375.29,223.828,379.708z"/>
</g>
<polygon style="fill:#ED5565;" points="207.841,19.985 207.841,99.924 159.878,99.924 159.878,19.985 159.878,3.997 207.841,3.997 
	"/>
<path style="fill:#E6E9ED;" d="M207.841,155.881V99.924h-47.963v55.957c-15.988,15.988-47.964,31.976-47.964,79.939v207.84v55.957
	c0,4.396,3.599,7.994,7.994,7.994h7.994h15.987h15.988h15.987h15.987h15.988h15.987h15.988h7.993c4.396,0,7.994-3.599,7.994-7.994
	V259.801V235.82C255.804,187.856,223.828,171.868,207.841,155.881z M239.817,291.777v119.908v31.975H127.903v-31.975V291.777
	v-31.976h111.914V291.777z"/>
<path style="fill:#FFFFFF;" d="M127.903,499.617V443.66v-31.975V291.777v-31.976V235.82c0-47.963,31.976-79.939,31.976-79.939
	c-15.988,15.988-47.964,31.976-47.964,79.939v207.84v55.957c0,4.396,3.599,7.994,7.994,7.994h7.994h7.993
	C131.501,507.611,127.903,504.012,127.903,499.617z"/>
<g style="opacity:0.2;">
	<path d="M239.817,499.617V443.66v-31.975V291.777v-31.976V235.82c0-47.963-31.976-79.939-31.976-79.939
		c15.987,15.987,47.963,31.975,47.963,79.939v207.84v55.957c0,4.396-3.599,7.994-7.994,7.994h-7.993h-7.994
		C236.218,507.611,239.817,504.012,239.817,499.617z"/>
</g>
<polygon style="fill:#FFCE54;" points="159.878,19.985 159.878,35.973 207.841,35.973 207.841,19.985 207.841,3.997 159.878,3.997 
	"/>
<polygon style="fill:#FFFFFF;" points="167.871,99.924 159.878,99.924 159.878,155.881 167.871,147.887 "/>
<g style="opacity:0.2;">
	<polygon points="199.847,99.924 207.841,99.924 207.841,155.881 199.847,147.887 	"/>
</g>
<g style="opacity:0.5;">
	<rect x="159.874" y="3.997" style="fill:#FFFFFF;" width="7.993" height="31.976"/>
</g>
<g style="opacity:0.2;">
	<rect x="199.844" y="3.997" width="7.994" height="31.976"/>
</g>
<g style="opacity:0.4;">
	<rect x="159.874" y="35.974" style="fill:#FFFFFF;" width="7.993" height="63.951"/>
</g>
<g style="opacity:0.3;">
	<rect x="199.844" y="35.974" width="7.994" height="63.951"/>
</g>
<g style="opacity:0.3;">
	<rect x="127.904" y="259.804" style="fill:#FFFFFF;" width="15.987" height="31.976"/>
</g>
<g style="opacity:0.2;">
	<rect x="223.824" y="259.804" width="15.988" height="31.976"/>
</g>
<g style="opacity:0.3;">
	<rect x="127.904" y="411.684" style="fill:#FFFFFF;" width="15.987" height="31.975"/>
</g>
<g style="opacity:0.2;">
	<rect x="223.824" y="411.684" width="15.988" height="31.975"/>
</g>
<rect x="127.904" y="291.774" style="fill:#FFFFFF;" width="15.987" height="119.91"/>
<g style="opacity:0.2;">
	<rect x="223.824" y="291.774" width="15.988" height="119.91"/>
</g>
<g>
	<path style="fill:#3A3847;" d="M111.914,503.614c-2.209,0-3.997-1.788-3.997-3.997V235.82c0-2.209,1.788-3.997,3.997-3.997
		c2.21,0,3.997,1.788,3.997,3.997v263.797C115.911,501.825,114.124,503.614,111.914,503.614z"/>
	<path style="fill:#3A3847;" d="M119.908,511.608c-6.612,0-11.991-5.379-11.991-11.991c0-2.209,1.788-3.996,3.997-3.996
		c2.21,0,3.997,1.787,3.997,3.996c0,2.201,1.792,3.997,3.997,3.997c2.209,0,3.997,1.788,3.997,3.997
		S122.117,511.608,119.908,511.608z"/>
	<path style="fill:#3A3847;" d="M247.81,511.608c-2.209,0-3.996-1.788-3.996-3.997s1.787-3.997,3.996-3.997
		c2.206,0,3.997-1.796,3.997-3.997c0-2.209,1.788-3.996,3.997-3.996c2.21,0,3.997,1.787,3.997,3.996
		C259.801,506.229,254.422,511.608,247.81,511.608z"/>
	<path style="fill:#3A3847;" d="M247.81,511.608H119.908c-2.209,0-3.997-1.788-3.997-3.997s1.788-3.997,3.997-3.997h127.901
		c2.21,0,3.997,1.788,3.997,3.997S250.02,511.608,247.81,511.608z"/>
	<path style="fill:#3A3847;" d="M111.914,239.816c-2.209,0-3.997-1.788-3.997-3.997c0-40.895,22.601-59.946,39.104-73.861
		c3.688-3.111,7.174-6.046,10.031-8.903c1.562-1.562,4.091-1.562,5.651,0c1.562,1.561,1.562,4.091,0,5.652
		c-3.095,3.095-6.705,6.14-10.53,9.364c-16.156,13.622-36.262,30.57-36.262,67.749C115.911,238.029,114.124,239.816,111.914,239.816
		z"/>
	<path style="fill:#3A3847;" d="M159.878,159.878c-2.21,0-3.997-1.788-3.997-3.997V3.997c0-2.209,1.787-3.997,3.997-3.997
		c2.209,0,3.996,1.788,3.996,3.997V155.88C163.874,158.09,162.087,159.878,159.878,159.878z"/>
	<path style="fill:#3A3847;" d="M255.804,503.614c-2.209,0-3.997-1.788-3.997-3.997V235.82c0-2.209,1.788-3.997,3.997-3.997
		c2.21,0,3.997,1.788,3.997,3.997v263.797C259.801,501.825,258.014,503.614,255.804,503.614z"/>
	<path style="fill:#3A3847;" d="M255.804,239.816c-2.209,0-3.997-1.788-3.997-3.997c0-37.179-20.105-54.127-36.261-67.749
		c-3.825-3.224-7.436-6.269-10.531-9.364c-1.562-1.561-1.562-4.091,0-5.652c1.562-1.562,4.091-1.562,5.652,0
		c2.856,2.857,6.343,5.792,10.031,8.903c16.503,13.915,39.103,32.967,39.103,73.861
		C259.801,238.029,258.014,239.816,255.804,239.816z"/>
	<path style="fill:#3A3847;" d="M207.841,159.878c-2.209,0-3.997-1.788-3.997-3.997V3.997c0-2.209,1.788-3.997,3.997-3.997
		s3.997,1.788,3.997,3.997V155.88C211.838,158.09,210.05,159.878,207.841,159.878z"/>
	<path style="fill:#3A3847;" d="M207.841,7.994h-47.963c-2.21,0-3.997-1.788-3.997-3.997S157.668,0,159.878,0h47.963
		c2.209,0,3.997,1.788,3.997,3.997S210.05,7.994,207.841,7.994z"/>
	<path style="fill:#3A3847;" d="M199.847,39.97h-31.976c-2.209,0-3.997-1.788-3.997-3.997s1.788-3.997,3.997-3.997h31.976
		c2.209,0,3.997,1.788,3.997,3.997S202.056,39.97,199.847,39.97z"/>
	<path style="fill:#3A3847;" d="M207.841,103.921h-47.963c-2.21,0-3.997-1.788-3.997-3.997c0-2.21,1.787-3.997,3.997-3.997h47.963
		c2.209,0,3.997,1.787,3.997,3.997C211.838,102.133,210.05,103.921,207.841,103.921z"/>
	<path style="fill:#3A3847;" d="M239.817,263.798H127.903c-2.21,0-3.997-1.788-3.997-3.997s1.787-3.997,3.997-3.997h111.914
		c2.209,0,3.997,1.788,3.997,3.997S242.026,263.798,239.817,263.798z"/>
	<path style="fill:#3A3847;" d="M239.817,447.657H127.903c-2.21,0-3.997-1.788-3.997-3.997s1.787-3.996,3.997-3.996h111.914
		c2.209,0,3.997,1.787,3.997,3.996S242.026,447.657,239.817,447.657z"/>
	<path style="fill:#3A3847;" d="M127.903,447.657c-2.21,0-3.997-1.788-3.997-3.997V259.801c0-2.209,1.787-3.997,3.997-3.997
		c2.209,0,3.997,1.788,3.997,3.997v183.858C131.9,445.868,130.112,447.657,127.903,447.657z"/>
	<path style="fill:#3A3847;" d="M239.817,447.657c-2.21,0-3.997-1.788-3.997-3.997V259.801c0-2.209,1.787-3.997,3.997-3.997
		c2.209,0,3.997,1.788,3.997,3.997v183.858C243.814,445.868,242.026,447.657,239.817,447.657z"/>
	<path style="fill:#3A3847;" d="M239.817,295.773H129.261c-2.21,0-3.997-1.787-3.997-3.996s1.787-3.997,3.997-3.997h110.556
		c2.209,0,3.997,1.788,3.997,3.997S242.026,295.773,239.817,295.773z"/>
	<path style="fill:#3A3847;" d="M239.817,415.681H129.261c-2.21,0-3.997-1.787-3.997-3.996c0-2.21,1.787-3.998,3.997-3.998h110.556
		c2.209,0,3.997,1.788,3.997,3.998C243.814,413.894,242.026,415.681,239.817,415.681z"/>
	<path style="fill:#3A3847;" d="M223.828,279.785h-78.58c-2.209,0-3.997-1.788-3.997-3.997s1.788-3.996,3.997-3.996h78.58
		c2.21,0,3.997,1.787,3.997,3.996S226.038,279.785,223.828,279.785z"/>
	<path style="fill:#3A3847;" d="M223.828,431.669h-78.58c-2.209,0-3.997-1.788-3.997-3.997s1.788-3.997,3.997-3.997h78.58
		c2.21,0,3.997,1.788,3.997,3.997S226.038,431.669,223.828,431.669z"/>
	<path style="fill:#3A3847;" d="M223.828,335.742H143.89c-2.209,0-3.997-1.788-3.997-3.997s1.788-3.996,3.997-3.996h79.938
		c2.21,0,3.997,1.787,3.997,3.996S226.038,335.742,223.828,335.742z"/>
	<path style="fill:#3A3847;" d="M207.841,351.73h-47.963c-2.21,0-3.997-1.787-3.997-3.996s1.787-3.997,3.997-3.997h47.963
		c2.209,0,3.997,1.788,3.997,3.997S210.05,351.73,207.841,351.73z"/>
	<path style="fill:#3A3847;" d="M151.884,391.7c-6.612,0-11.991-5.378-11.991-11.991c0-6.611,5.379-11.99,11.991-11.99
		s11.99,5.379,11.99,11.99C163.874,386.322,158.496,391.7,151.884,391.7z M151.884,375.712c-2.205,0-3.997,1.795-3.997,3.996
		c0,2.202,1.792,3.998,3.997,3.998s3.997-1.796,3.997-3.998C155.881,377.507,154.089,375.712,151.884,375.712z"/>
	<path style="fill:#3A3847;" d="M183.86,391.7c-6.612,0-11.991-5.378-11.991-11.991c0-6.611,5.379-11.99,11.991-11.99
		s11.99,5.379,11.99,11.99C195.85,386.322,190.472,391.7,183.86,391.7z M183.86,375.712c-2.206,0-3.997,1.795-3.997,3.996
		c0,2.202,1.791,3.998,3.997,3.998c2.205,0,3.997-1.796,3.997-3.998C187.857,377.507,186.065,375.712,183.86,375.712z"/>
	<path style="fill:#3A3847;" d="M215.835,391.7c-6.612,0-11.991-5.378-11.991-11.991c0-6.611,5.379-11.99,11.991-11.99
		c6.611,0,11.99,5.379,11.99,11.99C227.825,386.322,222.447,391.7,215.835,391.7z M215.835,375.712
		c-2.206,0-3.997,1.795-3.997,3.996c0,2.202,1.791,3.998,3.997,3.998c2.205,0,3.996-1.796,3.996-3.998
		C219.831,377.507,218.04,375.712,215.835,375.712z"/>
	<path style="fill:#3A3847;" d="M399.694,383.706H287.78c-2.209,0-3.997-1.788-3.997-3.998c0-2.209,1.788-3.996,3.997-3.996h111.914
		c2.209,0,3.997,1.787,3.997,3.996C403.691,381.918,401.903,383.706,399.694,383.706z"/>
	<path style="fill:#3A3847;" d="M383.714,511.608c-0.172,0-0.336-0.016-0.508-0.031c-2.186-0.273-3.739-2.271-3.466-4.466
		l15.987-127.901c0.273-2.193,2.288-3.724,4.466-3.466c2.186,0.273,3.739,2.271,3.466,4.465l-15.987,127.902
		C387.422,510.124,385.697,511.608,383.714,511.608z"/>
	<path style="fill:#3A3847;" d="M383.706,511.608h-79.938c-2.21,0-3.997-1.788-3.997-3.997s1.787-3.997,3.997-3.997h79.938
		c2.209,0,3.997,1.788,3.997,3.997S385.915,511.608,383.706,511.608z"/>
	<path style="fill:#3A3847;" d="M303.76,511.608c-1.983,0-3.709-1.483-3.958-3.497l-15.988-127.903
		c-0.272-2.193,1.28-4.191,3.466-4.465c2.124-0.258,4.192,1.272,4.466,3.466l15.987,127.901c0.273,2.194-1.279,4.192-3.466,4.466
		C304.095,511.592,303.932,511.608,303.76,511.608z"/>
	<path style="fill:#3A3847;" d="M391.7,399.694h-95.926c-2.209,0-3.997-1.788-3.997-3.997s1.788-3.997,3.997-3.997H391.7
		c2.21,0,3.997,1.788,3.997,3.997S393.909,399.694,391.7,399.694z"/>
	<path style="fill:#3A3847;" d="M343.737,487.626c-2.209,0-3.997-1.788-3.997-3.997v-63.951c0-2.209,1.788-3.997,3.997-3.997
		s3.997,1.788,3.997,3.997v63.951C347.734,485.838,345.946,487.626,343.737,487.626z"/>
	<path style="fill:#3A3847;" d="M359.733,487.626c-0.172,0-0.336-0.016-0.508-0.031c-2.186-0.273-3.739-2.271-3.466-4.466
		l7.993-63.95c0.273-2.194,2.287-3.732,4.466-3.467c2.186,0.273,3.739,2.271,3.466,4.466l-7.994,63.95
		C363.441,486.143,361.715,487.626,359.733,487.626z"/>
	<path style="fill:#3A3847;" d="M327.742,488.985c-1.991,0-3.708-1.483-3.958-3.513l-7.994-65.31
		c-0.273-2.187,1.288-4.185,3.482-4.45c2.139-0.313,4.176,1.28,4.449,3.482l7.994,65.309c0.273,2.186-1.289,4.185-3.482,4.45
		C328.069,488.977,327.905,488.985,327.742,488.985z"/>
	<path style="fill:#3A3847;" d="M167.871,71.946c-1.584,0-3.087-0.949-3.712-2.514c-0.819-2.049,0.18-4.375,2.229-5.195
		l31.976-12.791c2.038-0.816,4.376,0.171,5.195,2.229c0.82,2.049-0.18,4.375-2.229,5.195l-31.976,12.791
		C168.871,71.856,168.367,71.946,167.871,71.946z"/>
	<path style="fill:#3A3847;" d="M167.871,87.933c-1.584,0-3.087-0.948-3.712-2.514c-0.819-2.049,0.18-4.375,2.229-5.195
		l15.988-6.394c2.037-0.823,4.375,0.176,5.195,2.229c0.819,2.049-0.18,4.375-2.229,5.195l-15.988,6.394
		C168.871,87.843,168.367,87.933,167.871,87.933z"/>
	<path style="fill:#3A3847;" d="M167.871,23.982h-7.993c-2.21,0-3.997-1.787-3.997-3.997s1.787-3.997,3.997-3.997h7.993
		c2.21,0,3.997,1.787,3.997,3.997S170.081,23.982,167.871,23.982z"/>
	<path style="fill:#3A3847;" d="M207.841,23.982h-7.994c-2.209,0-3.997-1.787-3.997-3.997s1.788-3.997,3.997-3.997h7.994
		c2.209,0,3.997,1.787,3.997,3.997S210.05,23.982,207.841,23.982z"/>
	<path style="fill:#3A3847;" d="M127.903,511.608c-2.21,0-3.997-1.788-3.997-3.997v-3.997c0-2.209,1.787-3.997,3.997-3.997
		c2.209,0,3.997,1.788,3.997,3.997v3.997C131.9,509.82,130.112,511.608,127.903,511.608z"/>
	<path style="fill:#3A3847;" d="M143.89,511.608c-2.209,0-3.997-1.788-3.997-3.997v-3.997c0-2.209,1.788-3.997,3.997-3.997
		s3.997,1.788,3.997,3.997v3.997C147.887,509.82,146.099,511.608,143.89,511.608z"/>
	<path style="fill:#3A3847;" d="M159.878,511.608c-2.21,0-3.997-1.788-3.997-3.997v-3.997c0-2.209,1.787-3.997,3.997-3.997
		c2.209,0,3.996,1.788,3.996,3.997v3.997C163.874,509.82,162.087,511.608,159.878,511.608z"/>
	<path style="fill:#3A3847;" d="M175.866,511.608c-2.209,0-3.997-1.788-3.997-3.997v-3.997c0-2.209,1.788-3.997,3.997-3.997
		s3.997,1.788,3.997,3.997v3.997C179.863,509.82,178.075,511.608,175.866,511.608z"/>
	<path style="fill:#3A3847;" d="M191.853,511.608c-2.209,0-3.996-1.788-3.996-3.997v-3.997c0-2.209,1.787-3.997,3.996-3.997
		c2.21,0,3.997,1.788,3.997,3.997v3.997C195.85,509.82,194.063,511.608,191.853,511.608z"/>
	<path style="fill:#3A3847;" d="M207.841,511.608c-2.209,0-3.997-1.788-3.997-3.997v-3.997c0-2.209,1.788-3.997,3.997-3.997
		s3.997,1.788,3.997,3.997v3.997C211.838,509.82,210.05,511.608,207.841,511.608z"/>
	<path style="fill:#3A3847;" d="M223.828,511.608c-2.209,0-3.997-1.788-3.997-3.997v-3.997c0-2.209,1.788-3.997,3.997-3.997
		c2.21,0,3.997,1.788,3.997,3.997v3.997C227.825,509.82,226.038,511.608,223.828,511.608z"/>
	<path style="fill:#3A3847;" d="M239.817,511.608c-2.21,0-3.997-1.788-3.997-3.997v-3.997c0-2.209,1.787-3.997,3.997-3.997
		c2.209,0,3.997,1.788,3.997,3.997v3.997C243.814,509.82,242.026,511.608,239.817,511.608z"/>
</g>
<g>
</g>
<g>
</g>
<g>
</g>
<g>
</g>
<g>
</g>
<g>
</g>
<g>
</g>
<g>
</g>
<g>
</g>
<g>
</g>
<g>
</g>
<g>
</g>
<g>
</g>
<g>
</g>
<g>
</g>
</svg>
