<svg id="Capa_1" enable-background="new 0 0 512 512" height="512" viewBox="0 0 512 512" width="512" xmlns="http://www.w3.org/2000/svg"><g><g id="_x3C_Group_x3E__12_"><g fill="#fc7585"><path d="m408.046 194.149c-101.988 0-203.976 0-305.965 0-1.112-.009-6.05-.153-10.203-4.073-2.685-2.534-4.462-6.064-4.755-10.046l-10.421-141.53 11.821 9.894 8.167-9.894h338.608l-12.31 141.733c-.684 7.876-7.169 13.916-14.942 13.916z"/><path d="m405.777 234.149c-47.081 0-149.777-7.987-149.777-7.987l-150.357 7.987c-1.036-.095-4.427-.409-6.892-2.755-1.798-1.71-2.962-4.085-3.095-6.746l-1-20c-.286-5.712 4.269-10.499 9.988-10.499 51.75-4.823 103.5-9.645 155.25-14.468 49.128 4.823 98.256 9.645 147.383 14.468.622 0 4.422.064 7.331 3.198 1.82 1.962 2.859 4.649 2.641 7.549l-1.5 20c-.391 5.219-4.739 9.253-9.972 9.253z"/><path d="m382.189 447.5c-84.65 0-169.301 0-253.951 0-.703 0-4.091-.074-6.913-2.774-1.799-1.721-2.959-4.111-3.077-6.784l-7.248-163.793c48.61-4.199 97.22-8.397 145.83-12.596 48.057 4.199 96.114 8.397 144.17 12.596-2.942 54.63-5.884 109.259-8.825 163.889-.286 5.306-4.672 9.462-9.986 9.462z"/><path d="m372 504.5h-232c-5.523 0-10-4.477-10-10v-47l127.17-12.84c41.61 4.28 83.22 8.56 124.83 12.84v47c0 5.523-4.477 10-10 10z"/></g><path d="m160 447.5c-3.199-2.351-6.397-4.702-9.596-7.053-3.468 2.351-16.936 4.702-20.404 7.053v20 27c0 5.523 4.477 10 10 10h232c5.523 0 10-4.477 10-10v-10h-212c-5.523 0-10-4.477-10-10 0-9 0-18 0-27z" fill="#f46079"/><path d="m435.883 38.5c-59.174 6.606-118.347 13.213-177.521 19.819-60.748-6.606-121.497-13.213-182.245-19.819-8.503 0-15.5-6.997-15.5-15.5 0-8.56 6.94-15.5 15.5-15.5h359.766c8.56 0 15.5 6.94 15.5 15.5s-6.94 15.5-15.5 15.5z" fill="#f46079"/><path d="m431.713 79.771 3.585-41.271h-358.596l3.039 41.271z" fill="#fc7585"/><path d="m157.281 426.053c-.703 0-4.091-.074-6.913-2.774-1.799-1.721-2.959-4.111-3.077-6.784l-6.299-142.346c-3.104-1.872-16.207-3.745-19.311-5.617-3.56 1.872-7.121 3.745-10.681 5.617 2.416 54.598 4.832 109.195 7.248 163.793.118 2.673 1.278 5.062 3.077 6.784 2.822 2.7 6.21 2.774 6.913 2.774h253.951c5.314 0 9.7-4.156 9.986-9.462l.645-11.985c-81.846 0-153.693 0-235.539 0z" fill="#f46079"/><path d="m398.367 274.149c-46.095 0-92.6-7.722-138.695-7.722-48.686 0-96.961 7.722-145.646 7.722-.705 0-4.082-.075-6.902-2.764-1.798-1.715-2.961-4.097-3.087-6.763l-.997-21.047c-.243-5.132 3.852-9.426 8.99-9.426 48.267-4.426 96.534-8.851 144.8-13.277 47.7 4.426 95.4 8.851 143.101 13.277.561 0 3.97.057 6.586 2.866 1.638 1.758 2.577 4.168 2.392 6.772l-1.563 22c-.337 4.711-4.256 8.362-8.979 8.362z" fill="#fc7585"/><path d="m141.387 255.255c-.705 0-4.082-.075-6.902-2.764-1.798-1.715-2.961-4.097-3.087-6.763l-.123-2.594c.005-4.934 3.999-8.985 8.988-8.985-2.971-1.046-15.942-2.092-18.912-3.138-3.107 1.046-6.214 2.092-9.322 3.138-5.138 0-9.233 4.294-8.99 9.426l.997 21.047c.126 2.666 1.289 5.048 3.087 6.763 2.819 2.689 6.197 2.764 6.902 2.764h18.234 266.107c4.723 0 8.642-3.651 8.977-8.362l.749-10.532c-92.235 0-174.47 0-266.705 0z" fill="#f46079"/><path d="m133.686 214.745c-.707 0-4.075-.075-6.892-2.755-1.758-1.672-2.903-3.982-3.078-6.572l-.039-.77c-.285-5.712 4.269-10.499 9.988-10.499-2.562-1.475-15.124-2.95-17.686-4.426-3.778 1.475-7.557 2.95-11.335 4.426-5.719 0-10.273 4.788-9.988 10.499l1 20c.133 2.661 1.298 5.036 3.095 6.746 2.817 2.679 6.185 2.755 6.892 2.755h19.021 281.113c5.233 0 9.581-4.034 9.972-9.252l.761-10.152c-97.608 0-185.216 0-282.824 0z" fill="#f46079"/><path d="m130.465 172.362c-1.112-.009-6.05-.153-10.203-4.073-2.685-2.534-4.462-6.064-4.755-10.046l-8.818-119.743h-29.987l10.421 141.53c.293 3.981 2.07 7.511 4.755 10.046 4.153 3.92 9.091 4.064 10.203 4.073h305.965c7.773 0 14.258-6.04 14.942-13.916l.684-7.871c-101.069 0-192.138 0-293.207 0z" fill="#f46079"/><path d="m79.744 79.81 7.38 100.22c.586 7.963 7.108 14.119 14.958 14.119h20c-7.85 0-14.372-6.156-14.958-14.119l-7.38-100.223" fill="#f46079"/></g><path d="m458.883 23c0-12.682-10.317-23-23-23h-269.011c-4.143 0-7.5 3.358-7.5 7.5s3.357 7.5 7.5 7.5h269.011c4.411 0 8 3.589 8 8s-3.589 8-8 8c-.101 0-.198.011-.298.015-.096-.004-.191-.015-.287-.015h-358.596c-.097 0-.192.011-.288.015-.099-.004-.197-.015-.297-.015-4.411 0-8-3.589-8-8s3.589-8 8-8h55.351c4.143 0 7.5-3.358 7.5-7.5s-3.357-7.5-7.5-7.5h-55.351c-12.683 0-23 10.318-23 23 0 10.443 6.998 19.276 16.549 22.073l9.978 135.508c.499 6.769 3.955 12.688 9.013 16.516-1.09 2.475-1.629 5.188-1.492 7.925l1 20.001c.291 5.818 3.392 10.849 7.951 13.81-.449 1.649-.65 3.368-.568 5.096l.998 21.046c.259 5.481 3.015 10.251 7.129 13.272l2.382 53.848c.179 4.025 3.498 7.168 7.487 7.168.112 0 .225-.002.338-.007 4.138-.183 7.344-3.686 7.16-7.824l-2.203-49.784h274.246l-8.4 155.985c-.071 1.327-1.168 2.366-2.496 2.366h-25.339c-4.143 0-7.5 3.358-7.5 7.5s3.357 7.5 7.5 7.5h17.65v39.5c0 1.378-1.121 2.5-2.5 2.5h-232c-1.379 0-2.5-1.122-2.5-2.5v-39.499h183.989c4.143 0 7.5-3.358 7.5-7.5s-3.357-7.5-7.5-7.5h-193.251c-1.341 0-2.438-1.049-2.498-2.39l-3.149-71.2c-.184-4.139-3.675-7.35-7.825-7.161-4.138.183-7.344 3.686-7.161 7.824l3.151 71.199c.325 7.369 5.144 13.466 11.744 15.749v40.479c0 9.649 7.851 17.5 17.5 17.5h232c9.649 0 17.5-7.851 17.5-17.5v-41.118c5.72-2.638 9.804-8.26 10.164-14.941l8.623-160.141c3.684-2.787 6.19-7.078 6.538-11.981l1.564-22c.141-1.982-.103-3.953-.657-5.829 4.193-2.924 7.09-7.622 7.495-13.032l1.501-20.001c.244-3.255-.458-6.489-1.936-9.346 4.266-3.735 7.133-9.082 7.667-15.229l11.793-135.786c9.593-2.77 16.631-11.624 16.631-22.096zm-31.765 23-2.281 26.266h-338.129l-1.934-26.266zm-27.187 195.649c1.017.112 1.457.583 1.496 1.606l-1.564 22.002c-.055.781-.712 1.392-1.495 1.392h-284.343c-1.337 0-2.434-1.046-2.497-2.382l-.998-21.047c.064-1.009.494-1.46 1.499-1.571zm15.586-62.066c-.351 4.028-3.562 7.065-7.471 7.065h-73.939c-4.143 0-7.5 3.358-7.5 7.5s3.357 7.5 7.5 7.5h73.17c.949 0 1.556.501 1.833.799.277.299.731.941.661 1.888l-1.5 20c-.098 1.297-1.192 2.313-2.493 2.313h-300.134c-1.334 0-2.431-1.043-2.498-2.375l-1-20c.176-1.784.725-2.361 2.498-2.625h194.144c4.143 0 7.5-3.358 7.5-7.5s-3.357-7.5-7.5-7.5h-196.706c-3.897 0-7.183-3.149-7.479-7.17l-6.79-92.213h335.721z"/></g></svg>