<svg height="480pt" viewBox="0 -32 480.00103 480" width="480pt" xmlns="http://www.w3.org/2000/svg"><path d="m408.703125 408h-336.703125c-35.347656 0-64-28.652344-64-64l16-224h432l16 224.703125c0 34.957031-28.339844 63.296875-63.296875 63.296875zm0 0" fill="#ff6aa0"/><path d="m112 168h256v64h-256zm0 0" fill="#f3e7da"/><path d="m336 208h-192c-4.417969 0-8-3.582031-8-8s3.582031-8 8-8h192c4.417969 0 8 3.582031 8 8s-3.582031 8-8 8zm0 0" fill="#fb9e55"/><g fill="#fddf79"><path d="m136 376h-64c-17.671875 0-32-14.328125-32-32v-32zm0 0"/><path d="m344 376h64c17.671875 0 32-14.328125 32-32v-32zm0 0"/><path d="m40 8c-8.449219 0-16 8-16 24l8 88h16l8-88c0-16-8-24-16-24zm0 0"/><path d="m336 248h-32l8-48h16zm0 0"/></g><path d="m16 119.433594-16 224.566406c.0429688 39.746094 32.253906 71.957031 72 72h336.703125c18.992187-.046875 37.1875-7.652344 50.5625-21.136719 13.375-13.480469 20.835937-31.734375 20.734375-50.726562l-16-224.703125c-.296875-4.195313-3.792969-7.445313-8-7.433594h-399.199219l7.199219-80c0-21.007812-12.070312-32-24-32-11.558594 0-24 10.015625-24 32.726562l7.199219 79.417969c-3.855469.351563-6.894531 3.429688-7.199219 7.289063zm448 225.269531c-.035156 30.527344-24.769531 55.261719-55.296875 55.296875h-336.703125c-30.707031.003906-55.6875-24.726562-56-55.429688l15.449219-216.570312h417.101562zm-424-328.703125c3.878906 0 8 5.601562 8 15.273438l-7.304688 80.726562h-1.390624l-7.304688-80c0-9.421875 3.289062-16 8-16zm0 0"/><path d="m140.441406 369.34375-96-64c-2.457031-1.636719-5.613281-1.789062-8.214844-.398438-2.601562 1.390626-4.226562 4.105469-4.226562 7.054688v32c.027344 22.082031 17.917969 39.972656 40 40h64c3.527344 0 6.636719-2.304688 7.65625-5.679688 1.023438-3.375-.28125-7.019531-3.214844-8.976562zm-68.441406-1.34375c-13.253906 0-24-10.746094-24-24v-17.054688l61.601562 41.054688zm0 0"/><path d="m336.34375 378.320312c1.023438 3.375 4.132812 5.679688 7.65625 5.679688h64c22.082031-.027344 39.972656-17.917969 40-40v-32c0-2.949219-1.625-5.664062-4.226562-7.054688-2.601563-1.390624-5.757813-1.238281-8.214844.398438l-96 64c-2.929688 1.957031-4.238282 5.601562-3.214844 8.976562zm95.65625-51.375v17.054688c0 13.253906-10.746094 24-24 24h-37.601562zm0 0"/><path d="m112 240h185.222656l-1.109375 6.6875c-.386719 2.320312.265625 4.691406 1.785157 6.484375 1.519531 1.792969 3.75 2.828125 6.101562 2.828125h32c2.351562 0 4.582031-1.035156 6.101562-2.828125 1.519532-1.792969 2.171876-4.164063 1.785157-6.484375l-1.109375-6.6875h25.222656c4.417969 0 8-3.582031 8-8v-64c0-4.417969-3.582031-8-8-8h-256c-4.417969 0-8 3.582031-8 8v64c0 4.417969 3.582031 8 8 8zm201.449219 0 5.328125-32h2.445312l5.328125 32zm-193.449219-64h240v48h-19.886719l-2.722656-16.28125c3.789063-.621094 6.578125-3.878906 6.609375-7.71875 0-4.417969-3.582031-8-8-8h-192c-4.417969 0-8 3.582031-8 8s3.582031 8 8 8h158.558594l-2.671875 16h-179.886719zm0 0"/></svg>